# xmcd CD database file
#
# Track frame offsets:
#	150
#	16405
#	33444
#	55831
#	87771
#	108731
#	134290
#	159493
#	186656
#	205157
#	223622
#	248147
#	276344
#	289034
#
# Disc length: 4208 seconds
#
# Revision: 0
# Processed by: cddbd v1.5.2PL0 Copyright (c) Steve Scherf et al.
# Submitted via: CDex 1.51
#
DISCID=d1106e0e
DTITLE=Mr. Blue and the tight groove - Hired Slave
DYEAR=2002
DGENRE=Blues
TTITLE0=Nadean
TTITLE1=Kansas City
TTITLE2=Unchain my Heart
TTITLE3=Hired Slave
TTITLE4=I Begin to Wonder
TTITLE5=Hey Joe
TTITLE6=Bad Breeze
TTITLE7=Back in L.A.
TTITLE8=Nobody But You
TTITLE9=I Gave It All
TTITLE10=Evil
TTITLE11=Next In Line
TTITLE12=Every Day I've Got the Blues
TTITLE13=I Ain't Superstitions
EXTD=YEAR: 2002
EXTT0=
EXTT1=
EXTT2=
EXTT3=
EXTT4=
EXTT5=
EXTT6=
EXTT7=
EXTT8=
EXTT9=
EXTT10=
EXTT11=
EXTT12=
EXTT13=
PLAYORDER=
